nColumns=19
nRows=78
DataType=double
version=3
OpenSimVersion=4.1
endheader
time	ground_force_calcn_r_vx	ground_force_calcn_r_vy	ground_force_calcn_r_vz	ground_force_calcn_r_px	ground_force_calcn_r_py	ground_force_calcn_r_pz	ground_force_calcn_r_mx	ground_force_calcn_r_my	ground_force_calcn_r_mz	ground_force_calcn_l_vx	ground_force_calcn_l_vy	ground_force_calcn_l_vz	ground_force_calcn_l_px	ground_force_calcn_l_py	ground_force_calcn_l_pz	ground_force_calcn_l_mx	ground_force_calcn_l_my	ground_force_calcn_l_mz
0	-26.8623	327.945	16.5203	0.0986043	0	-0.201033	-0.0161848	0.19759	0.00995363	0	0	0	0	0	0	0	0	0
0.01	-38.6122	357.351	16.1191	0.102952	0	-0.200392	-0.0162005	0.149933	0.00676307	0	0	0	0	0	0	0	0	0
0.02	-50.6803	388.866	15.0477	0.108151	0	-0.199381	-0.0115853	0.088893	0.00343982	0	0	0	0	0	0	0	0	0
0.03	-62.5699	421.467	13.1406	0.113418	0	-0.198094	-0.00232348	0.0156508	0.000487965	0	0	0	0	0	0	0	0	0
0.04	-73.8741	454.051	10.2786	0.118728	0	-0.19655	0.0105345	-0.0647479	-0.00146574	0	0	0	0	0	0	0	0	0
0.05	-84.2872	485.647	6.45177	0.124084	0	-0.194781	0.0243204	-0.140129	-0.00186161	0	0	0	0	0	0	0	0	0
0.06	-93.6173	515.606	1.79481	0.129497	0	-0.192837	0.0345076	-0.190054	-0.000661572	0	0	0	0	0	0	0	0	0
0.07	-101.789	543.645	-3.41979	0.134966	0	-0.190785	0.0355167	-0.189692	0.00119325	0	0	0	0	0	0	0	0	0
0.08	-108.807	569.77	-8.82748	0.140473	0	-0.188705	0.0224002	-0.117299	0.00181732	0	0	0	0	0	0	0	0	0
0.09	-114.713	594.165	-14.0431	0.145972	0	-0.186673	-0.00745006	0.0385881	-0.000912031	0	0	0	0	0	0	0	0	0
0.1	-119.557	617.062	-18.7261	0.151395	0	-0.184761	-0.0534856	0.276053	-0.00837745	0	0	0	0	0	0	0	0	0
0.11	-123.376	638.616	-22.6222	0.15666	0	-0.183021	-0.112414	0.581872	-0.0206122	0	0	0	0	0	0	0	0	0
0.12	-126.201	658.824	-25.5829	0.161684	0	-0.181489	-0.179292	0.935979	-0.0363451	0	0	0	0	0	0	0	0	0
0.13	-128.061	677.512	-27.5708	0.166398	0	-0.180179	-0.2486	1.31523	-0.0535223	0	0	0	0	0	0	0	0	0
0.14	-128.986	694.389	-28.6511	0.170754	0	-0.179092	-0.315163	1.69666	-0.0700057	0	0	0	0	0	0	0	0	0
0.15	-129.014	709.115	-28.9608	0.174726	0	-0.178213	-0.374915	2.06069	-0.0841601	0	0	0	0	0	0	0	0	0
0.16	-128.184	721.37	-28.6705	0.178308	0	-0.177523	-0.425159	2.39264	-0.0950944	0	0	0	0	0	0	0	0	0
0.17	-126.546	730.895	-27.9496	0.181512	0	-0.177002	-0.46439	2.68219	-0.102568	0	0	0	0	0	0	0	0	0
0.18	-124.163	737.54	-26.9369	0.184354	0	-0.176633	-0.491943	2.92218	-0.106726	0	0	0	0	0	0	0	0	0
0.19	-121.107	741.29	-25.7231	0.186859	0	-0.176403	-0.507653	3.10731	-0.107825	0	0	0	0	0	0	0	0	0
0.2	-117.457	742.283	-24.3497	0.189051	0	-0.176303	-0.511625	3.23328	-0.106064	0	0	0	0	0	0	0	0	0
0.21	-113.296	740.812	-22.8211	0.190951	0	-0.176327	-0.504186	3.29674	-0.101558	0	0	0	0	0	0	0	0	0
0.22	-108.716	737.311	-21.1229	0.192585	0	-0.17647	-0.48601	3.29611	-0.0944288	0	0	0	0	0	0	0	0	0
0.23	-103.814	732.316	-19.2504	0.193977	0	-0.176723	-0.458204	3.23223	-0.0849656	0	0	0	0	0	0	0	0	0
0.24	-98.6898	726.414	-17.2298	0.195157	0	-0.17707	-0.422348	3.10873	-0.0737359	0	0	0	0	0	0	0	0	0
0.25	-93.4477	720.182	-15.1233	0.19616	0	-0.177486	-0.38045	2.93205	-0.0615708	0	0	0	0	0	0	0	0	0
0.26	-88.1894	714.14	-13.0215	0.197033	0	-0.17794	-0.33476	2.71082	-0.0494287	0	0	0	0	0	0	0	0	0
0.27	-83.0119	708.716	-11.0303	0.197827	0	-0.178392	-0.28753	2.45479	-0.0382059	0	0	0	0	0	0	0	0	0
0.28	-78.0034	704.219	-9.25365	0.198594	0	-0.178803	-0.240799	2.17395	-0.0285663	0	0	0	0	0	0	0	0	0
0.29	-73.239	700.838	-7.77912	0.199388	0	-0.179133	-0.196233	1.87779	-0.020843	0	0	0	0	0	0	0	0	0
0.3	-68.7752	698.64	-6.66824	0.200249	0	-0.17935	-0.155022	1.57476	-0.0150304	0	0	0	0	0	0	0	0	0
0.31	-64.6449	697.588	-5.95096	0.201206	0	-0.179434	-0.117866	1.2719	-0.0108502	0	0	0	0	0	0	0	0	0
0.32	-60.8506	697.578	-5.62319	0.202268	0	-0.179377	-0.0850341	0.974812	-0.00785798	0	0	0	0	0	0	0	0	0
0.33	-57.3665	698.476	-5.65162	0.203431	0	-0.179184	-0.0564802	0.687684	-0.0055643	0	0	0	0	0	0	0	0	0
0.34	-54.1491	700.139	-5.98359	0.204677	0	-0.178873	-0.0319541	0.413161	-0.003531	0	0	0	0	0	0	0	0	0
0.35	-51.145	702.407	-6.55778	0.205983	0	-0.178468	-0.0110864	0.152256	-0.00142149	0	0	0	0	0	0	0	0	0
0.36	-48.2947	705.106	-7.31279	0.207323	0	-0.177998	0.00654444	-0.0955495	0.000990962	0	0	0	0	0	0	0	0	0
0.37	-45.5354	708.049	-8.19234	0.208671	0	-0.177494	0.0213617	-0.332163	0.00384322	0	0	0	0	0	0	0	0	0
0.38	-42.8062	711.053	-9.14611	0.210005	0	-0.176988	0.0337513	-0.560642	0.00721142	0	0	0	0	0	0	0	0	0
0.39	-40.052	713.958	-10.129	0.21131	0	-0.17651	0.0440278	-0.78483	0.0111345	0	0	0	0	0	0	0	0	0
0.4	-37.2265	716.641	-11.101	0.212571	0	-0.176088	0.0524018	-1.00878	0.0156262	0	0	0	0	0	0	0	0	0
0.41	-34.2957	719.026	-12.0265	0.213781	0	-0.175749	0.0589646	-1.23622	0.0206771	0	0	0	0	0	0	0	0	0
0.42	-31.2387	721.079	-12.8729	0.214937	0	-0.175516	0.0636992	-1.47036	0.0262492	0	0	0	0	0	0	0	0	0
0.43	-28.0453	722.806	-13.61	0.216036	0	-0.175405	0.0664931	-1.71371	0.0322682	0	0	0	0	0	0	0	0	0
0.44	-24.7129	724.251	-14.2139	0.217086	0	-0.175425	0.0671489	-1.9679	0.0386214	0	0	0	0	0	0	0	0	0
0.45	-21.245	725.485	-14.6733	0.21809	0	-0.175579	0.0654062	-2.23353	0.0451742	0	0	0	0	0	0	0	0	0
0.46	-17.65	726.603	-14.9943	0.219062	0	-0.175859	0.0609759	-2.51022	0.0518012	0	0	0	0	0	0	0	0	0
0.47	-13.9418	727.711	-15.2023	0.220026	0	-0.176248	0.0535775	-2.79655	0.0584215	0	0	0	0	0	0	0	0	0
0.48	-10.1409	728.918	-15.3393	0.221012	0	-0.176723	0.0429913	-3.09018	0.0650295	0	0	0	0	0	0	0	0	0
0.49	-6.27562	730.333	-15.4569	0.222063	0	-0.177258	0.0291136	-3.38814	0.071707	0	0	0	0	0	0	0	0	0
0.5	-2.38185	732.055	-15.6071	0.223224	0	-0.177822	0.0119966	-3.68713	0.0786082	0	0	0	0	0	0	0	0	0
0.51	1.50079	734.166	-15.835	0.224552	0	-0.178387	-0.0081436	-3.98375	0.0859242	0	0	0	0	0	0	0	0	0
0.52	5.33186	736.723	-16.1737	0.2261	0	-0.178926	-0.0309366	-4.27463	0.0938432	0	0	0	0	0	0	0	0	0
0.53	9.07249	739.765	-16.6422	0.22792	0	-0.179414	-0.0558842	-4.55676	0.102512	0	0	0	0	0	0	0	0	0
0.54	12.6883	743.307	-17.2444	0.230059	0	-0.179834	-0.0824022	-4.82731	0.111992	0	0	0	0	0	0	0	0	0
0.55	16.1506	747.342	-17.9688	0.23255	0	-0.180175	-0.109854	-5.08331	0.122221	0	0	0	0	0	0	0	0	0
0.56	19.4418	751.843	-18.7894	0.235415	0	-0.180435	-0.137614	-5.32176	0.132997	0	0	0	0	0	0	0	0	0
0.57	22.5601	756.776	-19.6695	0.238658	0	-0.180615	-0.165141	-5.53964	0.143982	0	0	0	0	0	0	0	0	0
0.58	25.5208	762.107	-20.5689	0.242265	0	-0.180726	-0.192013	-5.73394	0.154756	0	0	0	0	0	0	0	0	0
0.59	28.3562	767.797	-21.4509	0.246205	0	-0.180778	-0.217964	-5.90179	0.164886	0	0	0	0	0	0	0	0	0
0.6	31.115	773.795	-22.2859	0.250432	0	-0.180785	-0.242901	-6.04068	0.173977	0	0	0	0	0	0	0	0	0
0.61	33.8588	780.033	-23.0495	0.254891	0	-0.18076	-0.266889	-6.14855	0.181686	0	0	0	0	0	0	0	0	0
0.62	36.6574	786.431	-23.7214	0.259517	0	-0.18072	-0.290117	-6.22402	0.187737	0	0	0	0	0	0	0	0	0
0.63	39.5858	792.891	-24.2867	0.264242	0	-0.180679	-0.312861	-6.26649	0.191946	0	0	0	0	0	0	0	0	0
0.64	42.7176	799.297	-24.7348	0.268998	0	-0.180649	-0.33543	-6.27629	0.194224	0	0	0	0	0	0	0	0	0
0.65	46.1157	805.509	-25.0576	0.273716	0	-0.180639	-0.358092	-6.25485	0.194574	0	0	0	0	0	0	0	0	0
0.66	49.8238	811.36	-25.246	0.278338	0	-0.180657	-0.381022	-6.20478	0.193066	0	0	0	0	0	0	0	0	0
0.67	53.8622	816.643	-25.2871	0.282811	0	-0.180709	-0.404284	-6.12964	0.189803	0	0	0	0	0	0	0	0	0
0.68	58.2247	821.111	-25.1624	0.287096	0	-0.180793	-0.427839	-6.03358	0.184895	0	0	0	0	0	0	0	0	0
0.69	62.8782	824.472	-24.8463	0.29116	0	-0.180908	-0.451564	-5.921	0.178435	0	0	0	0	0	0	0	0	0
0.7	67.7624	826.382	-24.3076	0.294982	0	-0.18105	-0.475272	-5.79608	0.170489	0	0	0	0	0	0	0	0	0
0.71	72.7898	826.439	-23.5139	0.298551	0	-0.181213	-0.498723	-5.6624	0.161107	0	0	0	0	0	0	0	0	0
0.72	77.8436	824.19	-22.4358	0.301862	0	-0.18139	-0.521592	-5.5225	0.150331	0	0	0	0	0	0	0	0	0
0.73	82.7781	819.135	-21.0502	0.304924	0	-0.18157	-0.543451	-5.37774	0.138198	6.32252	22.7033	-5.34852	0.716289	0	-0.24131	0.167629	0.601934	-0.141806
0.74	87.4245	810.75	-19.3428	0.307749	0	-0.181745	-0.563765	-5.22819	0.124734	6.29513	40.7445	-6.22062	0.759797	0	-0.263549	0.12293	0.795654	-0.121475
0.75	91.5977	798.516	-17.311	0.31036	0	-0.181903	-0.581886	-5.07268	0.10997	5.64708	63.2497	-7.17235	0.781572	0	-0.273451	0.0834923	0.93515	-0.106044
0.76	95.1022	781.95	-14.9655	0.312781	0	-0.182036	-0.597035	-4.90894	0.093951	4.162	90.4281	-8.16635	0.795229	0	-0.278855	0.0488373	1.06109	-0.0958247
0.77	97.7393	760.637	-12.3325	0.315041	0	-0.182133	-0.608287	-4.73388	0.076752	1.59835	122.238	-9.14572	0.805033	0	-0.282208	0.0154823	1.18405	-0.0885894
